<svg xmlns="http://www.w3.org/2000/svg" viewBox="0 0 420 190" role="img" aria-labelledby="t d"><title id="t">ILAMA BLOOM</title><desc id="d">Three-petal Ilama blossom with natural leaves</desc><g transform="translate(210 8)"><path d="M0 72C-24 47-23 18 0 0C23 18 24 47 0 72Z" fill="#AE666A"/><path d="M-8 75C-44 68-67 48-64 25C-36 24-12 44-8 75Z" fill="#D09A98"/><path d="M8 75C44 68 67 48 64 25C36 24 12 44 8 75Z" fill="#D09A98"/><path d="M-5 80C-33 83-52 73-65 57C-42 54-19 62-5 80Z" fill="#4F7A4A"/><path d="M5 80C33 83 52 73 65 57C42 54 19 62 5 80Z" fill="#4F7A4A"/><path d="M0 68V94" stroke="#123121" stroke-width="3"/></g><text x="210" y="137" text-anchor="middle" fill="#123121" font-family="Georgia,'Times New Roman',serif" font-size="43" letter-spacing="14">ILAMA</text><text x="210" y="166" text-anchor="middle" fill="#AE666A" font-family="Arial,sans-serif" font-size="16" letter-spacing="14">BLOOM</text><path d="M55 183h88M277 183h88" stroke="#AE666A" stroke-width="1"/><text x="210" y="187" text-anchor="middle" fill="#1F2A24" font-family="Arial,sans-serif" font-size="8.5" letter-spacing="2.4">GOOD NUTRITION BRINGS A BRIGHTER YOU</text></svg>