<svg xmlns="http://www.w3.org/2000/svg" viewBox="0 0 64 64" role="img" aria-label="ILAMA BLOOM"><rect width="64" height="64" rx="15" fill="#F5EFE5"/><g transform="translate(32 10)"><path d="M0 25C-10 15-9 6 0 0C9 6 10 15 0 25Z" fill="#A94F62"/><path d="M-3 27C-17 24-24 16-22 8C-11 9-3 16-3 27Z" fill="#C9858C"/><path d="M3 27C17 24 24 16 22 8C11 9 3 16 3 27Z" fill="#D7A0A0"/><path d="M-2 29C-14 32-20 29-25 23C-16 21-8 23-2 29Z" fill="#5F773D"/><path d="M2 29C14 32 20 29 25 23C16 21 8 23 2 29Z" fill="#748B4A"/><path d="M0 24V37" stroke="#173D31" stroke-width="2.4" stroke-linecap="round"/></g><text x="32" y="56" text-anchor="middle" fill="#173D31" font-family="Georgia,serif" font-size="8" letter-spacing="2">ILAMA</text></svg>